<svg viewBox="0 0 34 34" fill="none" xmlns="http://www.w3.org/2000/svg">
<rect x="0.5" y="0.5" rx="4.5" stroke="currentColor"/>
<g clip-path="url(#clip0_7_1779)">
<path d="M18 12L13.7 7.70005C13.2484 7.2506 12.6372 6.99829 12 6.99829C11.3629 6.99829 10.7517 7.2506 10.3 7.70005L7.70005 10.3C7.2506 10.7517 6.99829 11.3629 6.99829 12C6.99829 12.6372 7.2506 13.2484 7.70005 13.7L12 18M13 11L15 9M23 21L25 19M22 16L26.3 20.3C27.24 21.24 27.24 22.76 26.3 23.7L23.7 26.3C22.76 27.24 21.24 27.24 20.3 26.3L16 22M20 10L24 14M26.1741 11.8119C26.7028 11.2833 26.9998 10.5664 26.9999 9.81875C27 9.07113 26.7031 8.3541 26.1746 7.82539C25.646 7.29668 24.929 6.99961 24.1814 6.99951C23.4338 6.99942 22.7168 7.29632 22.1881 7.82489L8.84206 21.1739C8.60988 21.4054 8.43817 21.6904 8.34206 22.0039L7.02106 26.3559C6.99521 26.4424 6.99326 26.5342 7.01541 26.6217C7.03756 26.7092 7.08298 26.7891 7.14685 26.8529C7.21073 26.9167 7.29068 26.962 7.37821 26.984C7.46575 27.006 7.55762 27.0039 7.64406 26.9779L11.9971 25.6579C12.3102 25.5626 12.5952 25.392 12.8271 25.1609L26.1741 11.8119Z" stroke="currentColor" stroke-width="2" stroke-linecap="round" stroke-linejoin="round"/>
</g>
<defs>
<clipPath id="clip0_7_1779">
<rect fill="white" transform="translate(5 5)"/>
</clipPath>
</defs>
</svg>
