<svg viewBox="0 0 24 24" fill="none" xmlns="http://www.w3.org/2000/svg">
<g clip-path="url(#clip0_7_1907)">
<path d="M13 7.00005L8.70005 2.70005C8.24842 2.2506 7.6372 1.99829 7.00005 1.99829C6.36289 1.99829 5.75167 2.2506 5.30005 2.70005L2.70005 5.30005C2.2506 5.75167 1.99829 6.36289 1.99829 7.00005C1.99829 7.6372 2.2506 8.24842 2.70005 8.70005L7.00005 13M8 6L10 4M18 16L20 14M17 11L21.3 15.3C22.24 16.24 22.24 17.76 21.3 18.7L18.7 21.3C17.76 22.24 16.24 22.24 15.3 21.3L11 17M15 5L19 9M21.1741 6.81189C21.7028 6.28332 21.9998 5.56636 21.9999 4.81875C22 4.07113 21.7031 3.3541 21.1746 2.82539C20.646 2.29668 19.929 1.99961 19.1814 1.99951C18.4338 1.99942 17.7168 2.29632 17.1881 2.82489L3.84206 16.1739C3.60988 16.4054 3.43817 16.6904 3.34206 17.0039L2.02106 21.3559C1.99521 21.4424 1.99326 21.5342 2.01541 21.6217C2.03756 21.7092 2.08298 21.7891 2.14685 21.8529C2.21073 21.9167 2.29068 21.962 2.37821 21.984C2.46575 22.006 2.55762 22.0039 2.64406 21.9779L6.99706 20.6579C7.31023 20.5626 7.59523 20.392 7.82706 20.1609L21.1741 6.81189Z" stroke="currentColor" stroke-width="2" stroke-linecap="round" stroke-linejoin="round"/>
</g>
<defs>
<clipPath id="clip0_7_1907">
<rect fill="white"/>
</clipPath>
</defs>
</svg>
