<svg viewBox="0 0 30 30" fill="none" xmlns="http://www.w3.org/2000/svg">
<rect x="0.5" y="0.5" rx="4.5" stroke="currentColor"/>
<path d="M20 15.8334L18.8541 10.105C18.823 9.94917 18.7479 9.80549 18.6377 9.69091C18.5276 9.57633 18.387 9.49564 18.2325 9.45836L7.6958 6.69003C7.55699 6.65646 7.41188 6.65914 7.2744 6.69779C7.13692 6.73645 7.01169 6.80978 6.9107 6.91076C6.80972 7.01175 6.73639 7.13698 6.69773 7.27446C6.65908 7.41194 6.6564 7.55705 6.68996 7.69586L9.4583 18.2325C9.49558 18.387 9.57627 18.5276 9.69085 18.6378C9.80543 18.7479 9.94911 18.823 10.105 18.8542L15.8333 20M6.91667 6.91673L12.9883 12.9884M18.0891 22.7443C17.9328 22.9005 17.7209 22.9883 17.4999 22.9883C17.279 22.9883 17.067 22.9005 16.9108 22.7443L15.5891 21.4226C15.4329 21.2663 15.3451 21.0544 15.3451 20.8334C15.3451 20.6125 15.4329 20.4005 15.5891 20.2443L20.2441 15.5893C20.4004 15.433 20.6123 15.3453 20.8333 15.3453C21.0542 15.3453 21.2662 15.433 21.4224 15.5893L22.7441 16.9109C22.9003 17.0672 22.9881 17.2791 22.9881 17.5001C22.9881 17.7211 22.9003 17.933 22.7441 18.0893L18.0891 22.7443ZM15.8333 14.1667C15.8333 15.0872 15.0871 15.8334 14.1666 15.8334C13.2462 15.8334 12.5 15.0872 12.5 14.1667C12.5 13.2462 13.2462 12.5 14.1666 12.5C15.0871 12.5 15.8333 13.2462 15.8333 14.1667Z" stroke="currentColor" stroke-width="1.66667" stroke-linecap="round" stroke-linejoin="round"/>
</svg>
